<?xml version="1.0" encoding="utf-8"?>
<!-- Generator: Adobe Illustrator 25.0.0, SVG Export Plug-In . SVG Version: 6.00 Build 0)  -->
<svg version="1.1" id="Layer_1" xmlns="http://www.w3.org/2000/svg" xmlns:xlink="http://www.w3.org/1999/xlink" x="0px" y="0px"
	 viewBox="0 0 24 24" style="enable-background:new 0 0 24 24;" xml:space="preserve">
<style type="text/css">
	.st0{fill:#777777;}
	.st1{fill:none;}
	.st2{fill:#FF08D6;}
</style>
<g>
	<path class="st0" d="M20,3H4C3.4,3,3,3.5,3,4v6c0,0.5,0.4,1,1,1h16c0.5,0,1-0.5,1-1V4C21,3.5,20.6,3,20,3z M19,9H5V5h14V9z"/>
	<polygon class="st0" points="18.1,6 15.7,6 16.9,8 	"/>
	<path class="st0" d="M20,13H4c-0.6,0-1,0.5-1,1v6c0,0.5,0.4,1,1,1h16c0.5,0,1-0.5,1-1v-6C21,13.5,20.6,13,20,13z M19,19H5v-4h14V19
		z"/>
	<polygon class="st0" points="18.1,16 15.7,16 16.9,18 	"/>
</g>
</svg>
