<?xml version="1.0" encoding="utf-8"?>
<!-- Generator: Adobe Illustrator 25.0.0, SVG Export Plug-In . SVG Version: 6.00 Build 0)  -->
<svg version="1.1" id="Layer_1" xmlns="http://www.w3.org/2000/svg" xmlns:xlink="http://www.w3.org/1999/xlink" x="0px" y="0px"
	 viewBox="0 0 24 24" style="enable-background:new 0 0 24 24;" xml:space="preserve">
<style type="text/css">
	.st0{fill:#777777;}
	.st1{fill:none;}
	.st2{fill:#FF08D6;}
</style>
<g>
	<rect x="1.4" y="6.7" class="st0" width="9.6" height="2"/>
	<rect x="1.4" y="11" class="st0" width="9.6" height="2"/>
	<rect x="1.4" y="15.3" class="st0" width="9.6" height="2"/>
</g>
<g>
	<g>
		<path class="st0" d="M21.6,8.1v7.8h-6.9V8.1H21.6 M21.3,6.3h-6.3c-1.1,0-2,0.9-2,2v7.3c0,1.1,0.9,2,2,2h6.3c1.1,0,2-0.9,2-2V8.3
			C23.3,7.2,22.4,6.3,21.3,6.3z"/>
	</g>
	<polygon class="st0" points="19.2,10.4 17.6,12.8 16.5,11.2 14.9,13.6 21.3,13.6 	"/>
</g>
</svg>
