<?xml version="1.0" encoding="utf-8"?>
<!-- Generator: Adobe Illustrator 25.0.0, SVG Export Plug-In . SVG Version: 6.00 Build 0)  -->
<svg version="1.1" id="Layer_1" xmlns="http://www.w3.org/2000/svg" xmlns:xlink="http://www.w3.org/1999/xlink" x="0px" y="0px"
	 viewBox="0 0 24 24" style="enable-background:new 0 0 24 24;" xml:space="preserve">
<style type="text/css">
	.st0{fill:#777777;}
	.st1{fill:none;}
	.st2{fill:#FF08D6;}
</style>
<g>
	
		<rect x="13.6" y="6.7" transform="matrix(-1 -4.489310e-11 4.489310e-11 -1 36.8885 15.4533)" class="st0" width="9.6" height="2"/>
	<rect x="13.6" y="11" transform="matrix(-1 -4.489310e-11 4.489310e-11 -1 36.8885 24)" class="st0" width="9.6" height="2"/>
	
		<rect x="13.6" y="15.3" transform="matrix(-1 -4.489310e-11 4.489310e-11 -1 36.8885 32.5467)" class="st0" width="9.6" height="2"/>
</g>
<path class="st0" d="M9.8,6.3H3.4c-1.1,0-2,0.9-2,2v7.3c0,1.1,0.9,2,2,2h6.3c1.1,0,2-0.9,2-2V8.3C11.8,7.2,10.9,6.3,9.8,6.3z
	 M5,14.2V9.8L8.8,12L5,14.2z"/>
</svg>
